<svg id="eXdRvhNEzuP1" xmlns="http://www.w3.org/2000/svg" xmlns:xlink="http://www.w3.org/1999/xlink" viewBox="0 0 512 512" shape-rendering="geometricPrecision" text-rendering="geometricPrecision"><path id="eXdRvhNEzuP2" d="M349.33,69.33C400.816436,69.483757,442.516243,111.183564,442.67,162.67L442.67,349.33C442.516243,400.816436,400.816436,442.516243,349.33,442.67L162.67,442.67C111.183564,442.516243,69.483757,400.816436,69.33,349.33L69.33,162.67C69.483757,111.183564,111.183564,69.483757,162.67,69.33L349.33,69.33M349.33,32L162.67,32C90.8,32,32,90.8,32,162.67L32,349.33C32,421.2,90.8,480,162.67,480L349.33,480C421.2,480,480,421.2,480,349.33L480,162.67C480,90.8,421.2,32,349.33,32Z" fill="rgb(255,255,255)" stroke="none" stroke-width="1"/><path id="eXdRvhNEzuP3" d="M377.33,162.67C361.866027,162.67,349.33,150.133973,349.33,134.67C349.33,119.206027,361.866027,106.67,377.33,106.67C392.793973,106.67,405.33,119.206027,405.33,134.67C405.345975,142.100947,402.401114,149.232143,397.146628,154.486628C391.892143,159.741114,384.760947,162.685975,377.33,162.67ZM256,181.33C297.239102,181.33,330.67,214.760898,330.67,256C330.67,297.239102,297.239102,330.67,256,330.67C214.760898,330.67,181.33,297.239102,181.33,256C181.374092,214.779175,214.779175,181.374092,256,181.33M256,144C194.144108,144,144,194.144108,144,256C144,317.855892,194.144108,368,256,368C317.855892,368,368,317.855892,368,256C368,194.144108,317.855892,144,256,144Z" fill="rgb(255,255,255)" stroke="none" stroke-width="1"/></svg>